<svg width="202" height="60" viewBox="0 0 202 60" fill="none" xmlns="http://www.w3.org/2000/svg">
<rect width="59.6272" height="60.0001" rx="12" fill="#4647E7"/>
<path d="M35.9023 21.9316C39.7841 22.0572 42.8806 22.7819 45.8234 25.5535C48.4704 28.0467 49.8888 32.4963 49.898 36.0721C49.9013 39.8431 48.4005 43.4597 45.7282 46.1203C41.546 50.2863 37.5481 50.2993 32.1624 50.2647L17.7852 50.2669L35.9023 21.9316Z" fill="#DEF356"/>
<path d="M22.1603 9.81155C23.0454 9.67659 27.3107 9.74864 28.4466 9.74923L41.8041 9.75998L25.9536 34.597L23.7359 38.0599C16.0584 37.9417 11.3026 34.0443 9.96217 26.4468C9.27781 22.7104 10.1238 18.8559 12.3098 15.7495C14.7772 12.2343 18.0329 10.5582 22.1603 9.81155Z" fill="white"/>
<path d="M75.2769 47.6438C74.9049 46.8999 74.5616 45.8698 74.2469 44.5537C73.9608 43.209 73.7176 41.807 73.5173 40.3478C73.3456 38.8886 73.2598 37.5868 73.2598 36.4423H77.5515C78.0093 38.8743 78.9106 40.777 80.2553 42.1503C81.6287 43.5237 83.2166 44.2104 85.0191 44.2104C85.9061 44.2104 86.5928 44.0387 87.0792 43.6954C87.5942 43.3234 87.9661 42.8799 88.195 42.3649C88.4239 41.8499 88.5384 41.3635 88.5384 40.9057C88.5384 39.9615 88.2236 39.1461 87.5942 38.4594C86.9647 37.7728 86.1636 37.1576 85.1908 36.614C84.2466 36.0418 83.2881 35.5267 82.3153 35.069C79.7975 33.8387 77.809 32.4367 76.3498 30.8631C74.8906 29.2608 74.161 27.258 74.161 24.8546C74.161 23.1093 74.5902 21.6358 75.4486 20.4341C76.3069 19.2038 77.4514 18.2596 78.8819 17.6016C80.3411 16.9435 81.972 16.6145 83.7745 16.6145C84.6043 16.6145 85.5771 16.7003 86.6929 16.872C87.8374 17.0437 88.7673 17.3298 89.4825 17.7303L93.1305 16.6145C93.5311 17.2725 93.8029 18.1452 93.946 19.2324C94.1176 20.2911 94.2178 21.3926 94.2464 22.5371C94.3036 23.6815 94.3322 24.7259 94.3322 25.67V26.3138H90.7701C90.1692 23.8818 89.3252 22.2367 88.2379 21.3783C87.1507 20.4913 85.9776 20.0479 84.7187 20.0479C83.5456 20.0479 82.673 20.3912 82.1008 21.0779C81.5571 21.736 81.2853 22.5657 81.2853 23.5671C81.2853 24.4827 81.5285 25.2552 82.0149 25.8846C82.5299 26.5141 83.188 27.072 83.9891 27.5584C84.7902 28.0162 85.6343 28.474 86.5212 28.9318C87.494 29.3896 88.5098 29.9189 89.5684 30.5197C90.627 31.0919 91.5998 31.7643 92.4868 32.5368C93.4023 33.3093 94.1319 34.2249 94.6756 35.2835C95.2478 36.3422 95.5339 37.5868 95.5339 39.0174C95.5339 40.591 95.1333 42.0359 94.3322 43.352C93.5311 44.6395 92.3866 45.6839 90.8988 46.485C89.411 47.2575 87.6085 47.6438 85.4912 47.6438C84.5184 47.6438 83.4455 47.5293 82.2724 47.3004C81.128 47.1001 79.8977 46.7282 78.5815 46.1846L75.2769 47.6438ZM98.798 47C98.4832 46.6567 98.24 46.299 98.0684 45.9271C97.8967 45.5551 97.8109 45.1402 97.8109 44.6825C98.6406 44.6825 99.2415 44.5108 99.6134 44.1675C99.9854 43.7955 100.171 43.1804 100.171 42.322V19.5329C100.171 18.8748 99.9854 18.3598 99.6134 17.9878C99.2415 17.5873 98.4546 17.387 97.2529 17.387V15.6703C97.9682 15.2697 98.798 14.9264 99.7422 14.6403C100.715 14.3255 101.673 14.0823 102.618 13.9107C103.562 13.7104 104.349 13.6103 104.978 13.6103C105.636 13.6103 106.108 13.7533 106.394 14.0394C106.709 14.3255 106.866 14.8263 106.866 15.5415V42.322C106.866 43.209 107.038 43.8241 107.381 44.1675C107.753 44.5108 108.369 44.6825 109.227 44.6825C109.227 45.1402 109.127 45.5551 108.926 45.9271C108.755 46.299 108.512 46.6567 108.197 47H98.798ZM117.095 20.6916C115.865 20.6916 114.878 20.334 114.134 19.6187C113.419 18.8748 113.061 17.8877 113.061 16.6574C113.061 15.4557 113.433 14.4829 114.177 13.739C114.949 12.9951 115.951 12.6232 117.181 12.6232C118.44 12.6232 119.427 12.9951 120.142 13.739C120.886 14.4829 121.258 15.4557 121.258 16.6574C121.258 17.8877 120.872 18.8748 120.099 19.6187C119.356 20.334 118.354 20.6916 117.095 20.6916ZM112.288 47C111.974 46.6853 111.731 46.3419 111.559 45.97C111.387 45.598 111.301 45.1689 111.301 44.6825C112.131 44.6825 112.746 44.5108 113.147 44.1675C113.547 43.7955 113.748 43.1804 113.748 42.322V29.876C113.748 29.1321 113.562 28.5741 113.19 28.2022C112.846 27.8302 112.088 27.6442 110.915 27.6442V25.7559C111.344 25.4984 112.002 25.2123 112.889 24.8975C113.776 24.5542 114.735 24.2681 115.765 24.0392C116.823 23.8103 117.768 23.6958 118.597 23.6958C119.255 23.6958 119.727 23.8532 120.014 24.1679C120.3 24.4541 120.443 24.9548 120.443 25.67V42.3649C120.443 43.2233 120.657 43.8241 121.087 44.1675C121.516 44.5108 122.145 44.6825 122.975 44.6825C122.975 45.1689 122.889 45.598 122.717 45.97C122.546 46.3419 122.303 46.6853 121.988 47H112.288ZM156.43 47.2575C155.371 47.2575 154.456 47.1144 153.683 46.8283C152.939 46.5136 152.567 45.9128 152.567 45.0258V30.7343C152.567 29.8187 152.31 29.1177 151.795 28.6313C151.309 28.1163 150.65 27.8588 149.821 27.8588C149.363 27.8588 148.891 27.9447 148.404 28.1163C147.947 28.288 147.532 28.5455 147.16 28.8889C147.188 29.0033 147.203 29.1177 147.203 29.2322C147.203 29.318 147.203 29.4182 147.203 29.5326V42.3649C147.203 43.1947 147.374 43.7955 147.718 44.1675C148.061 44.5108 148.605 44.6825 149.349 44.6825C149.349 45.1402 149.248 45.5694 149.048 45.97C148.877 46.3419 148.633 46.6853 148.319 47H139.177C138.891 46.6853 138.648 46.3419 138.448 45.97C138.276 45.5694 138.19 45.1402 138.19 44.6825C138.934 44.6825 139.449 44.5108 139.735 44.1675C140.05 43.7955 140.207 43.1947 140.207 42.3649V30.7343C140.207 29.8187 139.935 29.1177 139.392 28.6313C138.877 28.1163 138.247 27.8588 137.503 27.8588C136.96 27.8588 136.402 27.9876 135.83 28.2451C135.257 28.5026 134.771 28.8745 134.37 29.3609V42.3649C134.37 43.1947 134.514 43.7955 134.8 44.1675C135.114 44.5108 135.629 44.6825 136.345 44.6825C136.345 45.5694 136.001 46.3419 135.315 47H126.002C125.687 46.6853 125.429 46.3419 125.229 45.97C125.057 45.5694 124.972 45.1402 124.972 44.6825C125.83 44.6825 126.445 44.5108 126.817 44.1675C127.189 43.7955 127.375 43.1947 127.375 42.3649V29.7901C127.375 29.0462 127.16 28.5026 126.731 28.1593C126.331 27.8159 125.587 27.6442 124.499 27.6442V25.7559C125.158 25.3553 125.987 24.9977 126.989 24.6829C128.019 24.3682 129.006 24.125 129.95 23.9534C130.923 23.7531 131.667 23.6529 132.182 23.6529C132.754 23.6529 133.226 23.8389 133.598 24.2109C133.999 24.5542 134.256 25.2838 134.37 26.3996C135.114 25.5699 136.044 24.9118 137.16 24.4254C138.305 23.9104 139.592 23.6529 141.023 23.6529C143.884 23.6529 145.744 24.6114 146.602 26.5284C147.346 25.6128 148.304 24.9118 149.477 24.4254C150.679 23.9104 152.01 23.6529 153.469 23.6529C155.529 23.6529 157.059 24.1536 158.061 25.155C159.091 26.1564 159.606 27.6156 159.606 29.5326V42.3649C159.606 43.023 159.792 43.5237 160.164 43.867C160.536 44.2104 161.051 44.4536 161.709 44.5966V45.8412C161.194 46.299 160.521 46.6567 159.692 46.9142C158.862 47.1431 157.775 47.2575 156.43 47.2575ZM195.24 47.2575C194.181 47.2575 193.266 47.1144 192.493 46.8283C191.749 46.5136 191.378 45.9128 191.378 45.0258V30.7343C191.378 29.8187 191.12 29.1177 190.605 28.6313C190.119 28.1163 189.461 27.8588 188.631 27.8588C188.173 27.8588 187.701 27.9447 187.215 28.1163C186.757 28.288 186.342 28.5455 185.97 28.8889C185.999 29.0033 186.013 29.1177 186.013 29.2322C186.013 29.318 186.013 29.4182 186.013 29.5326V42.3649C186.013 43.1947 186.185 43.7955 186.528 44.1675C186.871 44.5108 187.415 44.6825 188.159 44.6825C188.159 45.1402 188.059 45.5694 187.858 45.97C187.687 46.3419 187.443 46.6853 187.129 47H177.987C177.701 46.6853 177.458 46.3419 177.258 45.97C177.086 45.5694 177 45.1402 177 44.6825C177.744 44.6825 178.259 44.5108 178.545 44.1675C178.86 43.7955 179.017 43.1947 179.017 42.3649V30.7343C179.017 29.8187 178.745 29.1177 178.202 28.6313C177.687 28.1163 177.057 27.8588 176.314 27.8588C175.77 27.8588 175.212 27.9876 174.64 28.2451C174.067 28.5026 173.581 28.8745 173.181 29.3609V42.3649C173.181 43.1947 173.324 43.7955 173.61 44.1675C173.924 44.5108 174.439 44.6825 175.155 44.6825C175.155 45.5694 174.811 46.3419 174.125 47H164.812C164.497 46.6853 164.239 46.3419 164.039 45.97C163.867 45.5694 163.782 45.1402 163.782 44.6825C164.64 44.6825 165.255 44.5108 165.627 44.1675C165.999 43.7955 166.185 43.1947 166.185 42.3649V29.7901C166.185 29.0462 165.97 28.5026 165.541 28.1593C165.141 27.8159 164.397 27.6442 163.31 27.6442V25.7559C163.968 25.3553 164.797 24.9977 165.799 24.6829C166.829 24.3682 167.816 24.125 168.76 23.9534C169.733 23.7531 170.477 23.6529 170.992 23.6529C171.564 23.6529 172.036 23.8389 172.408 24.2109C172.809 24.5542 173.066 25.2838 173.181 26.3996C173.924 25.5699 174.854 24.9118 175.97 24.4254C177.115 23.9104 178.402 23.6529 179.833 23.6529C182.694 23.6529 184.554 24.6114 185.412 26.5284C186.156 25.6128 187.114 24.9118 188.287 24.4254C189.489 23.9104 190.82 23.6529 192.279 23.6529C194.339 23.6529 195.87 24.1536 196.871 25.155C197.901 26.1564 198.416 27.6156 198.416 29.5326V42.3649C198.416 43.023 198.602 43.5237 198.974 43.867C199.346 44.2104 199.861 44.4536 200.519 44.5966V45.8412C200.004 46.299 199.332 46.6567 198.502 46.9142C197.672 47.1431 196.585 47.2575 195.24 47.2575Z" fill="#4647E7"/>
</svg>
